<svg xmlns="http://www.w3.org/2000/svg" width="760" height="128" viewBox="0 0 760 128" role="img" aria-labelledby="title desc">
  <title id="title">Calabash impact snapshot</title>
  <desc id="desc">Release downloads 30, desktop downloads 25, repository views 131, repository clones 599.</desc>
  <defs>
    <filter id="soft-shadow" x="-4%" y="-12%" width="108%" height="130%">
      <feDropShadow dx="0" dy="2" stdDeviation="2" flood-color="#2b1c10" flood-opacity="0.14"/>
    </filter>
    <linearGradient id="paper" x1="0" x2="1" y1="0" y2="1">
      <stop offset="0" stop-color="#fbf3d8"/>
      <stop offset="1" stop-color="#efe2bb"/>
    </linearGradient>
    <pattern id="dot-grid" width="14" height="14" patternUnits="userSpaceOnUse">
      <circle cx="2" cy="2" r="1" fill="#b08b43" opacity="0.22"/>
    </pattern>
    <style>
      .eyebrow { font: 700 10px ui-monospace, SFMono-Regular, Menlo, Consolas, monospace; letter-spacing: .16em; }
      .metric-value { font: 700 30px Georgia, "Times New Roman", serif; }
      .metric-label { font: 700 10px ui-monospace, SFMono-Regular, Menlo, Consolas, monospace; letter-spacing: .08em; fill: #39291b; }
      .metric-sub { font: italic 10px Georgia, "Times New Roman", serif; fill: #715f43; }
      .chart-title { font: 700 11px ui-monospace, SFMono-Regular, Menlo, Consolas, monospace; letter-spacing: .08em; fill: #39291b; }
      .chart-note { font: italic 10px Georgia, "Times New Roman", serif; fill: #715f43; }
    </style>
  </defs>
  <rect x="1" y="1" width="758" height="126" rx="10" fill="url(#paper)" stroke="#c9ad73" filter="url(#soft-shadow)"/>
  <rect x="1" y="1" width="758" height="126" rx="10" fill="url(#dot-grid)" opacity="0.42"/>
  <path d="M1 29H759" stroke="#8f2f1f" stroke-width="5"/>
  <text class="eyebrow" x="28" y="22" fill="#74603d">PUBLIC IMPACT · v0.5.4 · 2026-05-18</text>
  
    <g transform="translate(28, 64)">
      <text class="metric-value" x="0" y="0" fill="#8f2f1f">30</text>
      <text class="metric-label" x="0" y="22">release downloads</text>
      <text class="metric-sub" x="0" y="40">5 on v0.5.3</text>
    </g>
    <g transform="translate(152, 64)">
      <text class="metric-value" x="0" y="0" fill="#9f6b14">25</text>
      <text class="metric-label" x="0" y="22">desktop downloads</text>
      <text class="metric-sub" x="0" y="40">desktop builds</text>
    </g>
    <g transform="translate(276, 64)">
      <text class="metric-value" x="0" y="0" fill="#1f5f7a">131</text>
      <text class="metric-label" x="0" y="22">repo views</text>
      <text class="metric-sub" x="0" y="40">9 visitors</text>
    </g>
    <g transform="translate(400, 64)">
      <text class="metric-value" x="0" y="0" fill="#6a4f1b">599</text>
      <text class="metric-label" x="0" y="22">repo clones</text>
      <text class="metric-sub" x="0" y="40">210 unique</text>
    </g>
  <g transform="translate(520, 36)">
    <text class="chart-title" x="0" y="0">VIEWS + CLONES · 14 DAYS</text>
    <line x1="0" y1="66" x2="204" y2="66" stroke="#c9ad73" stroke-width="1"/>
    <g>
      <rect x="0.0" y="64" width="12.7" height="2" rx="1.5" fill="#8f2f1f" opacity="0.26" />
      <rect x="14.7" y="64" width="12.7" height="2" rx="1.5" fill="#8f2f1f" opacity="0.26" />
      <rect x="29.4" y="64" width="12.7" height="2" rx="1.5" fill="#8f2f1f" opacity="0.26" />
      <rect x="44.1" y="64" width="12.7" height="2" rx="1.5" fill="#8f2f1f" opacity="0.26" />
      <rect x="58.9" y="64" width="12.7" height="2" rx="1.5" fill="#8f2f1f" opacity="0.26" />
      <rect x="73.6" y="64" width="12.7" height="2" rx="1.5" fill="#8f2f1f" opacity="0.26" />
      <rect x="88.3" y="64" width="12.7" height="2" rx="1.5" fill="#8f2f1f" opacity="0.26" />
      <rect x="103.0" y="64" width="12.7" height="2" rx="1.5" fill="#8f2f1f" opacity="0.26" />
      <rect x="117.7" y="64" width="12.7" height="2" rx="1.5" fill="#8f2f1f" opacity="0.26" />
      <rect x="132.4" y="64" width="12.7" height="2" rx="1.5" fill="#8f2f1f" opacity="0.26" />
      <rect x="147.1" y="36" width="12.7" height="30" rx="1.5" fill="#8f2f1f" opacity="0.26" />
      <rect x="161.9" y="49" width="12.7" height="17" rx="1.5" fill="#8f2f1f" opacity="0.26" />
      <rect x="176.6" y="62" width="12.7" height="4" rx="1.5" fill="#8f2f1f" opacity="0.26" />
      <rect x="191.3" y="20" width="12.7" height="46" rx="1.5" fill="#8f2f1f" opacity="0.26" />
      <rect x="0.0" y="64" width="12.7" height="2" rx="1.5" fill="#1f5f7a" opacity="0.82" />
      <rect x="14.7" y="64" width="12.7" height="2" rx="1.5" fill="#1f5f7a" opacity="0.82" />
      <rect x="29.4" y="64" width="12.7" height="2" rx="1.5" fill="#1f5f7a" opacity="0.82" />
      <rect x="44.1" y="64" width="12.7" height="2" rx="1.5" fill="#1f5f7a" opacity="0.82" />
      <rect x="58.9" y="64" width="12.7" height="2" rx="1.5" fill="#1f5f7a" opacity="0.82" />
      <rect x="73.6" y="64" width="12.7" height="2" rx="1.5" fill="#1f5f7a" opacity="0.82" />
      <rect x="88.3" y="64" width="12.7" height="2" rx="1.5" fill="#1f5f7a" opacity="0.82" />
      <rect x="103.0" y="64" width="12.7" height="2" rx="1.5" fill="#1f5f7a" opacity="0.82" />
      <rect x="117.7" y="63" width="12.7" height="3" rx="1.5" fill="#1f5f7a" opacity="0.82" />
      <rect x="132.4" y="63" width="12.7" height="3" rx="1.5" fill="#1f5f7a" opacity="0.82" />
      <rect x="147.1" y="29" width="12.7" height="37" rx="1.5" fill="#1f5f7a" opacity="0.82" />
      <rect x="161.9" y="49" width="12.7" height="17" rx="1.5" fill="#1f5f7a" opacity="0.82" />
      <rect x="176.6" y="63" width="12.7" height="3" rx="1.5" fill="#1f5f7a" opacity="0.82" />
      <rect x="191.3" y="20" width="12.7" height="46" rx="1.5" fill="#1f5f7a" opacity="0.82" />
    </g>
  </g>
</svg>
