<svg xmlns="http://www.w3.org/2000/svg" width="760" height="132" viewBox="0 0 760 132" role="img" aria-labelledby="title desc">
  <title id="title">Calabash impact snapshot</title>
  <desc id="desc">Release downloads 46, desktop downloads 38, repository views 177, and repository visitors 22.</desc>
  <defs>
    <filter id="soft-shadow" x="-4%" y="-12%" width="108%" height="130%">
      <feDropShadow dx="0" dy="2" stdDeviation="2" flood-color="#2b1c10" flood-opacity="0.14"/>
    </filter>
    <linearGradient id="paper" x1="0" x2="1" y1="0" y2="1">
      <stop offset="0" stop-color="#fbf3d8"/>
      <stop offset="1" stop-color="#efe2bb"/>
    </linearGradient>
    <pattern id="dot-grid" width="14" height="14" patternUnits="userSpaceOnUse">
      <circle cx="2" cy="2" r="1" fill="#b08b43" opacity="0.22"/>
    </pattern>
    <style>
      .eyebrow { font: 700 10px ui-monospace, SFMono-Regular, Menlo, Consolas, monospace; letter-spacing: .16em; }
      .metric-value { font: 700 30px Georgia, "Times New Roman", serif; }
      .metric-label { font: 700 10px ui-monospace, SFMono-Regular, Menlo, Consolas, monospace; letter-spacing: .08em; fill: #39291b; }
      .metric-sub { font: italic 10px Georgia, "Times New Roman", serif; fill: #715f43; }
      .chart-title { font: 700 11px ui-monospace, SFMono-Regular, Menlo, Consolas, monospace; letter-spacing: .08em; fill: #39291b; }
      .chart-note { font: italic 10px Georgia, "Times New Roman", serif; fill: #715f43; }
    </style>
  </defs>
  <rect x="1" y="1" width="758" height="130" rx="10" fill="url(#paper)" stroke="#c9ad73" filter="url(#soft-shadow)"/>
  <rect x="1" y="1" width="758" height="130" rx="10" fill="url(#dot-grid)" opacity="0.42"/>
  <path d="M1 29H759" stroke="#8f2f1f" stroke-width="5"/>
  <text class="eyebrow" x="28" y="22" fill="#74603d">PUBLIC IMPACT · v0.5.7 · 2026-05-26</text>
  
    <g transform="translate(28, 64)">
      <text class="metric-value" x="0" y="0" fill="#8f2f1f">46</text>
      <text class="metric-label" x="0" y="22">release downloads</text>
      <text class="metric-sub" x="0" y="40">5 on v0.5.7</text>
    </g>
    <g transform="translate(152, 64)">
      <text class="metric-value" x="0" y="0" fill="#9f6b14">38</text>
      <text class="metric-label" x="0" y="22">desktop downloads</text>
      <text class="metric-sub" x="0" y="40">desktop builds</text>
    </g>
    <g transform="translate(276, 64)">
      <text class="metric-value" x="0" y="0" fill="#1f5f7a">177</text>
      <text class="metric-label" x="0" y="22">repo views</text>
      <text class="metric-sub" x="0" y="40">22 visitors</text>
    </g>
    <g transform="translate(400, 64)">
      <text class="metric-value" x="0" y="0" fill="#6a4f1b">22</text>
      <text class="metric-label" x="0" y="22">repo visitors</text>
      <text class="metric-sub" x="0" y="40">last 14 days</text>
    </g>
  <g transform="translate(522, 38)">
    <text class="chart-title" x="0" y="0">REPO VIEWS · 14 DAYS</text>
    <line x1="0" y1="66" x2="176" y2="66" stroke="#c9ad73" stroke-width="1"/>
    <g>
      <rect x="0.0" y="64" width="10.7" height="2" rx="1.5" fill="#1f5f7a" opacity="0.84" />
      <rect x="12.7" y="63" width="10.7" height="3" rx="1.5" fill="#1f5f7a" opacity="0.84" />
      <rect x="25.4" y="63" width="10.7" height="3" rx="1.5" fill="#1f5f7a" opacity="0.84" />
      <rect x="38.1" y="29" width="10.7" height="37" rx="1.5" fill="#1f5f7a" opacity="0.84" />
      <rect x="50.9" y="49" width="10.7" height="17" rx="1.5" fill="#1f5f7a" opacity="0.84" />
      <rect x="63.6" y="63" width="10.7" height="3" rx="1.5" fill="#1f5f7a" opacity="0.84" />
      <rect x="76.3" y="20" width="10.7" height="46" rx="1.5" fill="#1f5f7a" opacity="0.84" />
      <rect x="89.0" y="49" width="10.7" height="17" rx="1.5" fill="#1f5f7a" opacity="0.84" />
      <rect x="101.7" y="56" width="10.7" height="10" rx="1.5" fill="#1f5f7a" opacity="0.84" />
      <rect x="114.4" y="63" width="10.7" height="3" rx="1.5" fill="#1f5f7a" opacity="0.84" />
      <rect x="127.1" y="63" width="10.7" height="3" rx="1.5" fill="#1f5f7a" opacity="0.84" />
      <rect x="139.9" y="63" width="10.7" height="3" rx="1.5" fill="#1f5f7a" opacity="0.84" />
      <rect x="152.6" y="63" width="10.7" height="3" rx="1.5" fill="#1f5f7a" opacity="0.84" />
      <rect x="165.3" y="62" width="10.7" height="4" rx="1.5" fill="#1f5f7a" opacity="0.84" />
    </g>
  </g>
</svg>
